<?xml version="1.0" standalone="no"?>
<!DOCTYPE svg PUBLIC "-//W3C//DTD SVG 20010904//EN"
 "http://www.w3.org/TR/2001/REC-SVG-20010904/DTD/svg10.dtd">
<svg version="1.0" xmlns="http://www.w3.org/2000/svg"
 width="500.000000pt" height="500.000000pt" viewBox="0 0 500.000000 500.000000"
 preserveAspectRatio="xMidYMid meet">

<g transform="translate(0.000000,500.000000) scale(0.100000,-0.100000)"
fill="#000000" stroke="none">
<path d="M1820 4151 c-75 -24 -132 -72 -161 -136 -24 -51 -26 -189 -4 -242 8
-19 15 -45 15 -57 0 -32 -27 -107 -49 -135 -19 -25 -19 -25 -47 -6 -16 10 -33
24 -39 32 -5 7 -29 15 -51 18 -23 3 -58 12 -77 20 -20 8 -46 15 -58 15 -13 0
-77 17 -143 37 l-121 37 -105 -28 c-93 -24 -111 -33 -171 -81 -36 -29 -72 -59
-80 -67 -8 -7 -52 -44 -99 -82 -47 -39 -87 -73 -90 -76 -6 -8 -93 -59 -142
-84 -49 -25 -87 -84 -109 -171 -52 -199 -15 -251 266 -373 82 -35 88 -36 255
-29 14 0 42 0 64 -1 32 -2 37 -5 31 -19 -4 -10 -12 -38 -19 -63 -9 -39 -15
-46 -41 -50 -29 -5 -31 -9 -44 -79 -10 -52 -11 -79 -4 -90 13 -22 -19 -126
-69 -226 -19 -38 -50 -117 -68 -174 -27 -89 -30 -107 -20 -127 12 -21 9 -29
-30 -81 -24 -32 -69 -87 -100 -123 -44 -50 -178 -254 -198 -302 -2 -5 379 -8
848 -8 l851 0 -6 48 c-13 88 -46 247 -69 327 -48 165 -58 224 -51 291 4 39 14
73 26 88 10 13 19 35 19 48 0 12 7 61 17 106 10 55 13 86 6 90 -5 4 -13 26
-17 49 -5 36 -3 44 14 53 11 6 20 21 20 34 0 16 7 26 21 29 11 3 23 14 26 25
2 11 16 25 29 31 13 6 24 19 24 29 0 22 30 52 51 52 16 0 37 -22 73 -77 20
-32 25 -54 29 -143 5 -99 25 -176 67 -260 5 -11 15 -29 20 -40 6 -11 10 -26
10 -34 0 -17 42 -146 54 -164 5 -9 17 -11 34 -7 32 8 147 77 186 111 l30 26
-18 52 c-10 28 -24 65 -31 81 -19 42 -49 145 -44 149 2 2 27 15 54 28 50 25
50 25 100 8 106 -38 129 -48 133 -59 5 -16 22 -13 22 4 0 17 23 30 71 39 36 6
119 54 119 68 0 5 -13 8 -30 8 -16 0 -30 4 -30 8 0 16 59 64 70 57 26 -16 138
-24 200 -14 73 11 85 19 98 69 l8 35 85 -4 c132 -5 270 -33 310 -63 20 -15 54
-28 84 -32 28 -4 209 -35 403 -68 263 -46 359 -59 379 -52 54 19 84 137 46
183 -10 11 -36 26 -58 33 l-40 13 3 70 c2 39 10 88 18 111 9 23 14 54 12 70
-4 33 -25 41 -124 43 -54 1 -65 -2 -92 -26 -31 -27 -31 -30 -33 -122 -1 -81 1
-96 16 -108 10 -7 17 -15 14 -17 -6 -7 -402 43 -419 53 -8 4 -17 23 -20 42 -4
30 -9 34 -35 34 -28 0 -30 -2 -27 -32 3 -31 2 -33 -30 -33 -18 0 -50 -5 -71
-11 -43 -12 -56 -7 -38 15 10 12 9 20 -4 39 -17 26 -45 43 -45 27 0 -5 7 -15
15 -24 16 -15 21 -66 6 -66 -23 0 -71 24 -71 35 0 7 7 26 15 41 23 44 19 61
-17 73 -40 13 -164 17 -196 7 -17 -6 -27 -3 -36 9 -15 21 -84 35 -116 23 -17
-6 -34 -3 -63 12 -35 18 -44 20 -70 9 -24 -10 -32 -10 -41 2 -6 8 -20 15 -31
17 -129 17 -140 21 -170 56 -32 38 -58 44 -89 21 -15 -11 -36 -13 -83 -9 -42
4 -68 2 -78 -6 -8 -7 -32 -9 -62 -6 -26 3 -86 10 -133 15 -47 5 -92 12 -101
15 -9 4 -47 41 -84 82 -37 42 -86 88 -108 102 -23 15 -52 37 -65 50 -14 12
-30 22 -36 22 -6 0 -28 18 -49 40 l-38 40 28 25 c33 29 47 30 92 6 l35 -18 34
81 c29 69 34 94 36 168 l1 87 -16 -41 c-19 -49 -30 -31 -16 25 7 29 13 36 27
32 13 -4 19 2 24 26 10 49 7 82 -9 103 -8 11 -15 28 -15 39 0 61 -98 194 -170
231 -39 20 -169 31 -210 17z m1646 -1342 c9 -16 -6 -26 -48 -34 -36 -7 -38 -6
-38 19 0 24 4 26 39 26 22 0 43 -5 47 -11z"/>
</g>
</svg>
