<?xml version="1.0" standalone="no"?>
<!DOCTYPE svg PUBLIC "-//W3C//DTD SVG 20010904//EN"
 "http://www.w3.org/TR/2001/REC-SVG-20010904/DTD/svg10.dtd">
<svg version="1.0" xmlns="http://www.w3.org/2000/svg"
 width="500.000000pt" height="500.000000pt" viewBox="0 0 500.000000 500.000000"
 preserveAspectRatio="xMidYMid meet">

<g transform="translate(0.000000,500.000000) scale(0.100000,-0.100000)"
fill="#000000" stroke="none">
<path d="M1782 4836 c-155 -58 -239 -162 -250 -307 -7 -104 2 -136 46 -158 42
-22 67 -59 75 -115 4 -27 19 -52 45 -80 40 -41 61 -88 55 -117 -5 -21 -145
-55 -307 -75 -66 -8 -127 -20 -135 -27 -57 -43 -204 -173 -221 -194 -29 -38
-43 -99 -35 -161 6 -47 14 -62 52 -103 33 -35 55 -50 82 -55 63 -10 69 -14
100 -62 17 -26 40 -59 52 -73 19 -24 20 -37 19 -230 -1 -173 -3 -206 -17 -221
-15 -17 -15 -27 -3 -106 8 -48 13 -117 12 -154 -2 -56 1 -70 18 -86 21 -19 21
-21 4 -71 -12 -39 -15 -74 -11 -153 5 -103 15 -140 76 -273 22 -47 107 -155
123 -155 20 0 263 -101 281 -117 9 -9 17 -21 17 -28 0 -7 25 -63 55 -124 76
-154 67 -164 -58 -69 -98 73 -184 115 -262 128 -67 11 -96 6 -142 -26 -18 -12
-65 -35 -104 -50 -84 -33 -115 -62 -121 -112 -6 -48 14 -127 40 -155 44 -49
62 -104 67 -205 7 -152 49 -257 123 -307 45 -31 73 -31 122 -4 55 31 85 99 77
178 -6 71 -1 74 64 33 88 -56 203 -206 245 -320 14 -37 31 -72 37 -78 7 -6 45
-21 84 -33 64 -19 74 -25 79 -49 12 -55 15 -61 36 -68 11 -3 39 -19 62 -34 41
-28 42 -28 235 -33 l193 -4 -7 86 c-9 103 -17 124 -60 144 -46 22 -63 52 -67
116 -3 48 0 56 18 66 42 21 55 38 49 62 -3 13 4 69 16 125 19 93 20 128 16
353 -3 180 -9 277 -22 345 -16 88 -16 99 -1 162 35 143 47 264 36 350 -10 82
-23 112 -90 203 l-30 40 11 80 c6 44 11 96 10 115 -1 19 -4 86 -7 148 -4 97
-2 122 15 175 31 91 51 209 51 293 0 72 1 74 28 80 15 4 45 16 66 27 l40 19
73 -23 c93 -29 134 -19 191 46 46 52 50 65 58 200 5 82 3 115 -15 188 -11 48
-27 100 -35 115 -8 15 -16 60 -17 101 l-4 74 33 19 33 18 6 -30 c11 -56 119
-85 144 -39 13 25 4 84 -18 118 -15 23 -15 26 5 39 18 12 22 24 22 66 0 29 -5
57 -12 64 -6 6 -9 14 -6 18 10 9 201 77 466 165 217 72 247 79 272 69 32 -13
70 0 70 25 0 8 27 23 70 36 65 21 70 25 70 51 0 17 -7 31 -15 35 -9 3 -62 -11
-118 -32 -56 -20 -230 -81 -387 -135 -157 -54 -396 -137 -533 -184 -206 -71
-258 -86 -315 -87 -37 -1 -96 -10 -131 -20 -92 -27 -89 -30 -85 54 2 62 0 75
-18 95 -21 22 -58 30 -58 13 0 -5 7 -14 15 -21 27 -22 17 -48 -26 -70 -51 -27
-80 -23 -97 13 -7 15 -17 27 -21 27 -13 0 -31 48 -31 82 0 57 -40 144 -87 192
-45 46 -215 171 -262 193 -43 20 -149 15 -219 -11z m1027 -855 c11 -7 12 -30
6 -112 -9 -128 -14 -139 -65 -139 -29 0 -54 10 -102 43 l-63 43 -2 55 -3 54
53 25 c70 34 149 48 176 31z"/>
</g>
</svg>
